# xmcd
#
# Track frame offsets:
#	150
#	18748
#	32041
#	50405
#	69150
#	92957
#	111231
#	126642
#	145247
#	167235
#
# Disc length: 2626 seconds
#
# Revision: 1
# Processed by: cddbd v1.5.2PL0 Copyright (c) Steve Scherf et al.
# Submitted via: audiograbber 1.83.01
#
DISCID=920a400a
DTITLE=Craig ERICKSON - Castle Blues
DYEAR=2007
DGENRE=Blues
TTITLE0=She So Sweet
TTITLE1=Keep It Real
TTITLE2=Boogie Train
TTITLE3=Public Eye
TTITLE4=Down And Out
TTITLE5=Windows
TTITLE6=Who Can Take Me Higher
TTITLE7=Deep In The Night
TTITLE8=Broken Heart, Broken Soul
TTITLE9=Castle Blues
EXTD=
EXTT0=
EXTT1=
EXTT2=
EXTT3=
EXTT4=
EXTT5=
EXTT6=
EXTT7=
EXTT8=
EXTT9=
PLAYORDER=
